<svg width="116" height="116" viewBox="0 0 116 116" fill="none" xmlns="http://www.w3.org/2000/svg">
<rect width="116" height="116" fill="white"/>
<path d="M19.7689 47.9545V59H12.712V39.3636H19.4109V43.0966H19.6154C20.0416 41.8523 20.7916 40.8764 21.8654 40.169C22.9478 39.4616 24.2092 39.108 25.6495 39.108C27.0387 39.108 28.2447 39.4276 29.2674 40.0668C30.2987 40.6974 31.0956 41.5668 31.6581 42.6747C32.2291 43.7827 32.5103 45.0483 32.5018 46.4716V59H25.445V47.9545C25.4535 46.983 25.2064 46.2202 24.7035 45.6662C24.2092 45.1122 23.5189 44.8352 22.6325 44.8352C22.0529 44.8352 21.5458 44.9631 21.1112 45.2188C20.685 45.4659 20.3569 45.8239 20.1268 46.2926C19.8967 46.7528 19.7774 47.3068 19.7689 47.9545ZM43.6457 59.358C41.515 59.358 39.6912 58.9361 38.1741 58.0923C36.6571 57.2401 35.4937 56.0554 34.6841 54.5384C33.8744 53.0128 33.4696 51.2443 33.4696 49.233C33.4696 47.2216 33.8744 45.4574 34.6841 43.9403C35.4937 42.4148 36.6571 41.2301 38.1741 40.3864C39.6912 39.5341 41.515 39.108 43.6457 39.108C45.7764 39.108 47.6002 39.5341 49.1173 40.3864C50.6343 41.2301 51.7977 42.4148 52.6074 43.9403C53.417 45.4574 53.8218 47.2216 53.8218 49.233C53.8218 51.2443 53.417 53.0128 52.6074 54.5384C51.7977 56.0554 50.6343 57.2401 49.1173 58.0923C47.6002 58.9361 45.7764 59.358 43.6457 59.358ZM43.6968 54.142C44.2934 54.142 44.8091 53.9418 45.2437 53.5412C45.6784 53.1406 46.015 52.5696 46.2537 51.8281C46.4923 51.0866 46.6116 50.2045 46.6116 49.1818C46.6116 48.1506 46.4923 47.2685 46.2537 46.5355C46.015 45.794 45.6784 45.223 45.2437 44.8224C44.8091 44.4219 44.2934 44.2216 43.6968 44.2216C43.0662 44.2216 42.525 44.4219 42.0733 44.8224C41.6216 45.223 41.2764 45.794 41.0377 46.5355C40.7991 47.2685 40.6798 48.1506 40.6798 49.1818C40.6798 50.2045 40.7991 51.0866 41.0377 51.8281C41.2764 52.5696 41.6216 53.1406 42.0733 53.5412C42.525 53.9418 43.0662 54.142 43.6968 54.142ZM64.3457 59.358C62.215 59.358 60.3912 58.9361 58.8741 58.0923C57.3571 57.2401 56.1937 56.0554 55.3841 54.5384C54.5744 53.0128 54.1696 51.2443 54.1696 49.233C54.1696 47.2216 54.5744 45.4574 55.3841 43.9403C56.1937 42.4148 57.3571 41.2301 58.8741 40.3864C60.3912 39.5341 62.215 39.108 64.3457 39.108C66.4764 39.108 68.3002 39.5341 69.8173 40.3864C71.3343 41.2301 72.4977 42.4148 73.3074 43.9403C74.117 45.4574 74.5218 47.2216 74.5218 49.233C74.5218 51.2443 74.117 53.0128 73.3074 54.5384C72.4977 56.0554 71.3343 57.2401 69.8173 58.0923C68.3002 58.9361 66.4764 59.358 64.3457 59.358ZM64.3968 54.142C64.9934 54.142 65.5091 53.9418 65.9437 53.5412C66.3784 53.1406 66.715 52.5696 66.9537 51.8281C67.1923 51.0866 67.3116 50.2045 67.3116 49.1818C67.3116 48.1506 67.1923 47.2685 66.9537 46.5355C66.715 45.794 66.3784 45.223 65.9437 44.8224C65.5091 44.4219 64.9934 44.2216 64.3968 44.2216C63.7662 44.2216 63.225 44.4219 62.7733 44.8224C62.3216 45.223 61.9764 45.794 61.7377 46.5355C61.4991 47.2685 61.3798 48.1506 61.3798 49.1818C61.3798 50.2045 61.4991 51.0866 61.7377 51.8281C61.9764 52.5696 62.3216 53.1406 62.7733 53.5412C63.225 53.9418 63.7662 54.142 64.3968 54.142ZM81.9264 54.3466L81.9775 45.9602H82.898L87.6537 39.3636H95.5798L87.6025 49.642H85.6082L81.9264 54.3466ZM75.5855 59V32.8182H82.6423V59H75.5855ZM87.7048 59L83.2048 51.2273L87.8071 46.2159L95.7843 59H87.7048ZM99.4527 59.4091C98.4641 59.4091 97.6161 59.0639 96.9087 58.3736C96.2098 57.6747 95.8647 56.8267 95.8732 55.8295C95.8647 54.858 96.2098 54.027 96.9087 53.3366C97.6161 52.6463 98.4641 52.3011 99.4527 52.3011C100.39 52.3011 101.217 52.6463 101.933 53.3366C102.657 54.027 103.024 54.858 103.032 55.8295C103.024 56.4943 102.849 57.0994 102.508 57.6449C102.176 58.1818 101.741 58.6122 101.204 58.9361C100.667 59.2514 100.083 59.4091 99.4527 59.4091ZM99.4527 46.2159C98.4641 46.2159 97.6161 45.8707 96.9087 45.1804C96.2098 44.4815 95.8647 43.6335 95.8732 42.6364C95.8647 41.6648 96.2098 40.8338 96.9087 40.1435C97.6161 39.4531 98.4641 39.108 99.4527 39.108C100.39 39.108 101.217 39.4531 101.933 40.1435C102.657 40.8338 103.024 41.6648 103.032 42.6364C103.024 43.3011 102.849 43.9062 102.508 44.4517C102.176 44.9886 101.741 45.419 101.204 45.7429C100.667 46.0582 100.083 46.2159 99.4527 46.2159ZM34.0388 71.9545V83H26.982V63.3636H33.6808V67.0966H33.8854C34.3115 65.8523 35.0615 64.8764 36.1354 64.169C37.2178 63.4616 38.4791 63.108 39.9195 63.108C41.3087 63.108 42.5146 63.4276 43.5374 64.0668C44.5686 64.6974 45.3655 65.5668 45.928 66.6747C46.499 67.7827 46.7803 69.0483 46.7717 70.4716V83H39.7149V71.9545C39.7234 70.983 39.4763 70.2202 38.9734 69.6662C38.4791 69.1122 37.7888 68.8352 36.9024 68.8352C36.3229 68.8352 35.8158 68.9631 35.3811 69.2188C34.955 69.4659 34.6268 69.8239 34.3967 70.2926C34.1666 70.7528 34.0473 71.3068 34.0388 71.9545ZM57.8645 83.358C55.7679 83.358 53.9611 82.9574 52.444 82.1562C50.9355 81.3466 49.7722 80.1875 48.954 78.679C48.1443 77.1619 47.7395 75.3466 47.7395 73.233C47.7395 71.2045 48.1486 69.4318 48.9668 67.9148C49.7849 66.3977 50.9398 65.2173 52.4313 64.3736C53.9227 63.5298 55.6827 63.108 57.7111 63.108C59.194 63.108 60.5364 63.3381 61.7381 63.7983C62.9398 64.2585 63.9668 64.9276 64.819 65.8054C65.6713 66.6747 66.3276 67.7315 66.7878 68.9759C67.248 70.2202 67.4781 71.6222 67.4781 73.1818V74.8182H49.9384V70.9318H60.9838C60.9753 70.3693 60.8304 69.875 60.5491 69.4489C60.2764 69.0142 59.9057 68.6776 59.4369 68.4389C58.9767 68.1918 58.4526 68.0682 57.8645 68.0682C57.2935 68.0682 56.7693 68.1918 56.292 68.4389C55.8148 68.6776 55.4313 69.0099 55.1415 69.4361C54.8602 69.8622 54.7111 70.3608 54.694 70.9318V75.125C54.694 75.7557 54.8261 76.3182 55.0903 76.8125C55.3545 77.3068 55.7338 77.6946 56.2281 77.9759C56.7224 78.2571 57.319 78.3977 58.0179 78.3977C58.5037 78.3977 58.9469 78.3295 59.3474 78.1932C59.7565 78.0568 60.106 77.8608 60.3957 77.6051C60.6855 77.3409 60.8986 77.0256 61.0349 76.6591H67.4781C67.2565 78.0227 66.7324 79.2074 65.9057 80.2131C65.079 81.2102 63.9838 81.9858 62.6202 82.5398C61.2651 83.0852 59.6798 83.358 57.8645 83.358ZM80.268 63.3636V68.4773H67.3305V63.3636H80.268ZM69.8362 58.6591H76.893V76.6847C76.893 76.9574 76.9398 77.1875 77.0336 77.375C77.1273 77.554 77.2722 77.6903 77.4683 77.7841C77.6643 77.8693 77.9157 77.9119 78.2225 77.9119C78.4356 77.9119 78.6827 77.8864 78.964 77.8352C79.2538 77.7841 79.4668 77.7415 79.6032 77.7074L80.6259 82.6676C80.3106 82.7614 79.8589 82.8764 79.2708 83.0128C78.6913 83.1491 78.0009 83.2386 77.1998 83.2812C75.5805 83.3665 74.2211 83.2003 73.1217 82.7827C72.0222 82.3565 71.1955 81.6875 70.6416 80.7756C70.0876 79.8636 69.8191 78.7216 69.8362 77.3494V58.6591ZM85.1828 83.4091C84.1942 83.4091 83.3462 83.0639 82.6388 82.3736C81.9399 81.6747 81.5947 80.8267 81.6033 79.8295C81.5947 78.858 81.9399 78.027 82.6388 77.3366C83.3462 76.6463 84.1942 76.3011 85.1828 76.3011C86.1203 76.3011 86.947 76.6463 87.6629 77.3366C88.3874 78.027 88.7538 78.858 88.7624 79.8295C88.7538 80.4943 88.5791 81.0994 88.2382 81.6449C87.9058 82.1818 87.4712 82.6122 86.9342 82.9361C86.3973 83.2514 85.8135 83.4091 85.1828 83.4091ZM85.1828 70.2159C84.1942 70.2159 83.3462 69.8707 82.6388 69.1804C81.9399 68.4815 81.5947 67.6335 81.6033 66.6364C81.5947 65.6648 81.9399 64.8338 82.6388 64.1435C83.3462 63.4531 84.1942 63.108 85.1828 63.108C86.1203 63.108 86.947 63.4531 87.6629 64.1435C88.3874 64.8338 88.7538 65.6648 88.7624 66.6364C88.7538 67.3011 88.5791 67.9062 88.2382 68.4517C87.9058 68.9886 87.4712 69.419 86.9342 69.7429C86.3973 70.0582 85.8135 70.2159 85.1828 70.2159Z" fill="black"/>
</svg>
