<svg width="116" height="116" viewBox="0 0 116 116" fill="none" xmlns="http://www.w3.org/2000/svg">
<rect width="116" height="116" fill="white"/>
<path d="M19.5199 41C19.4517 40.1477 19.1321 39.483 18.5611 39.0057C17.9986 38.5284 17.142 38.2898 15.9915 38.2898C15.2585 38.2898 14.6577 38.3793 14.1889 38.5582C13.7287 38.7287 13.3878 38.9631 13.1662 39.2614C12.9446 39.5597 12.8295 39.9006 12.821 40.2841C12.804 40.5994 12.8594 40.8849 12.9872 41.1406C13.1236 41.3878 13.3366 41.6136 13.6264 41.8182C13.9162 42.0142 14.2869 42.1932 14.7386 42.3551C15.1903 42.517 15.7273 42.6619 16.3494 42.7898L18.4972 43.25C19.946 43.5568 21.1861 43.9616 22.2173 44.4645C23.2486 44.9673 24.0923 45.5597 24.7486 46.2415C25.4048 46.9148 25.8864 47.6733 26.1932 48.517C26.5085 49.3608 26.6705 50.2812 26.679 51.2784C26.6705 53 26.2401 54.4574 25.3878 55.6506C24.5355 56.8438 23.3168 57.7514 21.7315 58.3736C20.1548 58.9957 18.2585 59.3068 16.0426 59.3068C13.767 59.3068 11.7813 58.9702 10.0852 58.2969C8.39773 57.6236 7.08523 56.5881 6.14773 55.1903C5.21875 53.7841 4.75 51.9858 4.74148 49.7955H11.4915C11.5341 50.5966 11.7344 51.2699 12.0923 51.8153C12.4503 52.3608 12.9531 52.7741 13.6009 53.0554C14.2571 53.3366 15.0369 53.4773 15.9403 53.4773C16.6989 53.4773 17.3338 53.3835 17.8452 53.196C18.3565 53.0085 18.7443 52.7486 19.0085 52.4162C19.2727 52.0838 19.4091 51.7045 19.4176 51.2784C19.4091 50.8778 19.277 50.5284 19.0213 50.2301C18.7741 49.9233 18.3651 49.6506 17.794 49.4119C17.223 49.1648 16.4517 48.9347 15.4801 48.7216L12.8722 48.1591C10.554 47.6562 8.72585 46.8168 7.38778 45.6406C6.05824 44.456 5.39773 42.8409 5.40625 40.7955C5.39773 39.1335 5.84091 37.6804 6.7358 36.4361C7.6392 35.1832 8.88778 34.2074 10.4815 33.5085C12.0838 32.8097 13.9205 32.4602 15.9915 32.4602C18.1051 32.4602 19.9332 32.8139 21.4759 33.5213C23.0185 34.2287 24.2074 35.2259 25.0426 36.5128C25.8864 37.7912 26.3125 39.2869 26.321 41H19.5199ZM37.1453 59.358C35.0146 59.358 33.1908 58.9361 31.6737 58.0923C30.1567 57.2401 28.9933 56.0554 28.1837 54.5384C27.374 53.0128 26.9692 51.2443 26.9692 49.233C26.9692 47.2216 27.374 45.4574 28.1837 43.9403C28.9933 42.4148 30.1567 41.2301 31.6737 40.3864C33.1908 39.5341 35.0146 39.108 37.1453 39.108C39.276 39.108 41.0999 39.5341 42.6169 40.3864C44.134 41.2301 45.2973 42.4148 46.107 43.9403C46.9166 45.4574 47.3215 47.2216 47.3215 49.233C47.3215 51.2443 46.9166 53.0128 46.107 54.5384C45.2973 56.0554 44.134 57.2401 42.6169 58.0923C41.0999 58.9361 39.276 59.358 37.1453 59.358ZM37.1965 54.142C37.793 54.142 38.3087 53.9418 38.7433 53.5412C39.178 53.1406 39.5146 52.5696 39.7533 51.8281C39.9919 51.0866 40.1112 50.2045 40.1112 49.1818C40.1112 48.1506 39.9919 47.2685 39.7533 46.5355C39.5146 45.794 39.178 45.223 38.7433 44.8224C38.3087 44.4219 37.793 44.2216 37.1965 44.2216C36.5658 44.2216 36.0246 44.4219 35.5729 44.8224C35.1212 45.223 34.776 45.794 34.5374 46.5355C34.2987 47.2685 34.1794 48.1506 34.1794 49.1818C34.1794 50.2045 34.2987 51.0866 34.5374 51.8281C34.776 52.5696 35.1212 53.1406 35.5729 53.5412C36.0246 53.9418 36.5658 54.142 37.1965 54.142ZM54.726 54.3466L54.7771 45.9602H55.6976L60.4533 39.3636H68.3794L60.4021 49.642H58.4078L54.726 54.3466ZM48.3851 59V32.8182H55.4419V59H48.3851ZM60.5044 59L56.0044 51.2273L60.6067 46.2159L68.584 59H60.5044ZM77.0176 59.358C74.921 59.358 73.1142 58.9574 71.5972 58.1562C70.0886 57.3466 68.9253 56.1875 68.1071 54.679C67.2974 53.1619 66.8926 51.3466 66.8926 49.233C66.8926 47.2045 67.3017 45.4318 68.1199 43.9148C68.9381 42.3977 70.0929 41.2173 71.5844 40.3736C73.0759 39.5298 74.8358 39.108 76.8642 39.108C78.3472 39.108 79.6895 39.3381 80.8912 39.7983C82.0929 40.2585 83.1199 40.9276 83.9722 41.8054C84.8244 42.6747 85.4807 43.7315 85.9409 44.9759C86.4011 46.2202 86.6312 47.6222 86.6312 49.1818V50.8182H69.0915V46.9318H80.1369C80.1284 46.3693 79.9835 45.875 79.7023 45.4489C79.4295 45.0142 79.0588 44.6776 78.5901 44.4389C78.1298 44.1918 77.6057 44.0682 77.0176 44.0682C76.4466 44.0682 75.9224 44.1918 75.4452 44.4389C74.9679 44.6776 74.5844 45.0099 74.2946 45.4361C74.0134 45.8622 73.8642 46.3608 73.8472 46.9318V51.125C73.8472 51.7557 73.9793 52.3182 74.2435 52.8125C74.5077 53.3068 74.8869 53.6946 75.3812 53.9759C75.8756 54.2571 76.4722 54.3977 77.171 54.3977C77.6568 54.3977 78.1 54.3295 78.5006 54.1932C78.9097 54.0568 79.2591 53.8608 79.5489 53.6051C79.8386 53.3409 80.0517 53.0256 80.1881 52.6591H86.6312C86.4097 54.0227 85.8855 55.2074 85.0588 56.2131C84.2321 57.2102 83.1369 57.9858 81.7733 58.5398C80.4182 59.0852 78.833 59.358 77.0176 59.358ZM93.5404 32.8182V35.8864C93.5404 36.7216 93.37 37.5568 93.0291 38.392C92.6967 39.2187 92.2705 39.9901 91.7506 40.706C91.2393 41.4134 90.7109 42.0057 90.1654 42.483L87.2506 41C87.6086 40.3864 87.9282 39.6747 88.2094 38.8651C88.4907 38.0554 88.6313 37.0625 88.6313 35.8864V32.8182H93.5404ZM110.856 45.7557H104.362C104.327 45.3551 104.187 45.0099 103.94 44.7202C103.692 44.4304 103.373 44.2088 102.981 44.0554C102.597 43.8935 102.171 43.8125 101.702 43.8125C101.097 43.8125 100.577 43.9233 100.143 44.1449C99.7081 44.3665 99.495 44.6818 99.5036 45.0909C99.495 45.3807 99.6186 45.6491 99.8743 45.8963C100.138 46.1435 100.646 46.3352 101.396 46.4716L105.384 47.1875C107.396 47.554 108.891 48.1719 109.871 49.0412C110.86 49.902 111.359 51.0568 111.367 52.5057C111.359 53.9034 110.941 55.1179 110.114 56.1491C109.296 57.1719 108.175 57.9645 106.752 58.527C105.337 59.081 103.722 59.358 101.907 59.358C98.907 59.358 96.5589 58.7443 94.8629 57.517C93.1754 56.2898 92.2337 54.6705 92.0376 52.6591H99.0433C99.1371 53.2812 99.4439 53.7628 99.9638 54.1037C100.492 54.4361 101.157 54.6023 101.958 54.6023C102.606 54.6023 103.138 54.4915 103.556 54.2699C103.982 54.0483 104.2 53.733 104.208 53.3239C104.2 52.9489 104.012 52.6506 103.646 52.429C103.288 52.2074 102.725 52.0284 101.958 51.892L98.4808 51.2784C96.478 50.929 94.978 50.2642 93.9808 49.2841C92.9837 48.304 92.4893 47.0426 92.4979 45.5C92.4893 44.1364 92.8473 42.9815 93.5717 42.0355C94.3047 41.081 95.3487 40.3565 96.7038 39.8622C98.0675 39.3594 99.6825 39.108 101.549 39.108C104.387 39.108 106.624 39.696 108.261 40.8722C109.906 42.0483 110.771 43.6761 110.856 45.7557ZM33.8921 56.8182V83H27.9603L18.5 69.2443H18.3466V83H11.2387V56.8182H17.2728L26.5796 70.5227H26.7841V56.8182H33.8921ZM45.0168 83.358C42.8861 83.358 41.0623 82.9361 39.5452 82.0923C38.0282 81.2401 36.8648 80.0554 36.0551 78.5384C35.2455 77.0128 34.8407 75.2443 34.8407 73.233C34.8407 71.2216 35.2455 69.4574 36.0551 67.9403C36.8648 66.4148 38.0282 65.2301 39.5452 64.3864C41.0623 63.5341 42.8861 63.108 45.0168 63.108C47.1475 63.108 48.9713 63.5341 50.4884 64.3864C52.0054 65.2301 53.1688 66.4148 53.9784 67.9403C54.7881 69.4574 55.1929 71.2216 55.1929 73.233C55.1929 75.2443 54.7881 77.0128 53.9784 78.5384C53.1688 80.0554 52.0054 81.2401 50.4884 82.0923C48.9713 82.9361 47.1475 83.358 45.0168 83.358ZM45.0679 78.142C45.6645 78.142 46.1801 77.9418 46.6148 77.5412C47.0495 77.1406 47.3861 76.5696 47.6248 75.8281C47.8634 75.0866 47.9827 74.2045 47.9827 73.1818C47.9827 72.1506 47.8634 71.2685 47.6248 70.5355C47.3861 69.794 47.0495 69.223 46.6148 68.8224C46.1801 68.4219 45.6645 68.2216 45.0679 68.2216C44.4373 68.2216 43.8961 68.4219 43.4444 68.8224C42.9926 69.223 42.6475 69.794 42.4088 70.5355C42.1702 71.2685 42.0509 72.1506 42.0509 73.1818C42.0509 74.2045 42.1702 75.0866 42.4088 75.8281C42.6475 76.5696 42.9926 77.1406 43.4444 77.5412C43.8961 77.9418 44.4373 78.142 45.0679 78.142ZM65.7168 83.358C63.5861 83.358 61.7623 82.9361 60.2452 82.0923C58.7282 81.2401 57.5648 80.0554 56.7551 78.5384C55.9455 77.0128 55.5407 75.2443 55.5407 73.233C55.5407 71.2216 55.9455 69.4574 56.7551 67.9403C57.5648 66.4148 58.7282 65.2301 60.2452 64.3864C61.7623 63.5341 63.5861 63.108 65.7168 63.108C67.8475 63.108 69.6713 63.5341 71.1884 64.3864C72.7054 65.2301 73.8688 66.4148 74.6784 67.9403C75.4881 69.4574 75.8929 71.2216 75.8929 73.233C75.8929 75.2443 75.4881 77.0128 74.6784 78.5384C73.8688 80.0554 72.7054 81.2401 71.1884 82.0923C69.6713 82.9361 67.8475 83.358 65.7168 83.358ZM65.7679 78.142C66.3645 78.142 66.8801 77.9418 67.3148 77.5412C67.7495 77.1406 68.0861 76.5696 68.3248 75.8281C68.5634 75.0866 68.6827 74.2045 68.6827 73.1818C68.6827 72.1506 68.5634 71.2685 68.3248 70.5355C68.0861 69.794 67.7495 69.223 67.3148 68.8224C66.8801 68.4219 66.3645 68.2216 65.7679 68.2216C65.1373 68.2216 64.5961 68.4219 64.1444 68.8224C63.6926 69.223 63.3475 69.794 63.1088 70.5355C62.8702 71.2685 62.7509 72.1506 62.7509 73.1818C62.7509 74.2045 62.8702 75.0866 63.1088 75.8281C63.3475 76.5696 63.6926 77.1406 64.1444 77.5412C64.5961 77.9418 65.1373 78.142 65.7679 78.142ZM83.2975 78.3466L83.3486 69.9602H84.2691L89.0247 63.3636H96.9509L88.9736 73.642H86.9793L83.2975 78.3466ZM76.9566 83V56.8182H84.0134V83H76.9566ZM89.0759 83L84.5759 75.2273L89.1782 70.2159L97.1554 83H89.0759ZM100.824 83.4091C99.8352 83.4091 98.9872 83.0639 98.2798 82.3736C97.5809 81.6747 97.2358 80.8267 97.2443 79.8295C97.2358 78.858 97.5809 78.027 98.2798 77.3366C98.9872 76.6463 99.8352 76.3011 100.824 76.3011C101.761 76.3011 102.588 76.6463 103.304 77.3366C104.028 78.027 104.395 78.858 104.403 79.8295C104.395 80.4943 104.22 81.0994 103.879 81.6449C103.547 82.1818 103.112 82.6122 102.575 82.9361C102.038 83.2514 101.455 83.4091 100.824 83.4091ZM100.824 70.2159C99.8352 70.2159 98.9872 69.8707 98.2798 69.1804C97.5809 68.4815 97.2358 67.6335 97.2443 66.6364C97.2358 65.6648 97.5809 64.8338 98.2798 64.1435C98.9872 63.4531 99.8352 63.108 100.824 63.108C101.761 63.108 102.588 63.4531 103.304 64.1435C104.028 64.8338 104.395 65.6648 104.403 66.6364C104.395 67.3011 104.22 67.9062 103.879 68.4517C103.547 68.9886 103.112 69.419 102.575 69.7429C102.038 70.0582 101.455 70.2159 100.824 70.2159Z" fill="black"/>
</svg>
