<?xml version="1.0" standalone="no"?>
<!DOCTYPE svg PUBLIC "-//W3C//DTD SVG 20010904//EN"
 "http://www.w3.org/TR/2001/REC-SVG-20010904/DTD/svg10.dtd">
<svg version="1.0" xmlns="http://www.w3.org/2000/svg"
 width="700.000000pt" height="700.000000pt" viewBox="0 0 700.000000 700.000000"
 preserveAspectRatio="xMidYMid meet">
<metadata>
Created by potrace 1.14, written by Peter Selinger 2001-2017
</metadata>
<g transform="translate(0.000000,700.000000) scale(0.100000,-0.100000)"
fill="#000000" stroke="none">
<path d="M2837 5013 c-4 -3 -7 -359 -7 -790 l0 -783 215 0 215 0 0 168 0 169
33 38 33 39 120 -207 119 -207 243 0 c233 0 242 1 233 18 -6 11 -98 159 -206
331 -109 176 -192 318 -188 324 4 7 91 121 195 254 103 133 188 244 188 248 0
3 -107 4 -237 3 l-237 -3 -136 -190 c-76 -104 -142 -191 -149 -193 -8 -3 -11
101 -11 392 l0 396 -208 0 c-115 0 -212 -3 -215 -7z"/>
<path d="M5258 4858 c-3 -160 -4 -165 -39 -249 l-35 -87 89 -43 89 -44 35 40
c54 62 110 151 134 214 18 45 23 83 27 194 l4 137 -150 0 -150 0 -4 -162z"/>
<path d="M765 4626 c-132 -26 -212 -65 -282 -138 -137 -141 -115 -392 43 -497
71 -47 139 -68 322 -102 187 -34 232 -51 246 -92 9 -24 6 -31 -17 -55 -26 -25
-33 -27 -116 -27 -101 0 -134 15 -161 73 l-15 32 -209 0 -209 0 6 -39 c20
-150 162 -285 352 -337 94 -25 304 -30 406 -9 230 46 382 185 397 362 9 119
-32 209 -123 269 -71 47 -146 70 -339 105 -93 17 -179 35 -191 39 -34 13 -55
39 -55 69 0 35 23 56 77 70 82 22 170 -10 200 -74 l17 -35 194 0 194 0 -6 48
c-22 152 -148 276 -332 327 -83 22 -309 29 -399 11z"/>
<path d="M1995 4624 c-215 -45 -374 -198 -432 -415 -23 -87 -23 -271 0 -359
72 -273 288 -429 594 -430 158 0 272 33 385 112 280 196 309 702 54 946 -142
137 -374 193 -601 146z m223 -308 c65 -34 99 -98 112 -213 16 -143 -23 -295
-86 -340 -89 -63 -197 -19 -240 97 -21 59 -30 219 -15 291 29 139 134 214 229
165z"/>
<path d="M4401 4624 c-213 -46 -371 -198 -428 -414 -12 -44 -17 -103 -17 -185
0 -196 48 -331 158 -441 97 -97 258 -163 399 -164 l47 0 0 -715 0 -715 215 0
215 0 0 171 c0 168 0 171 26 205 15 19 30 34 33 34 4 0 61 -92 126 -205 l118
-205 245 0 244 0 -14 23 c-137 210 -399 641 -395 650 3 7 91 122 196 257 105
135 191 248 191 253 0 4 -105 7 -234 7 l-234 0 -143 -200 c-79 -110 -147 -200
-151 -200 -5 0 -8 171 -8 381 l0 381 41 46 c44 49 94 145 105 200 l7 32 -192
0 -191 0 -36 -39 c-44 -49 -88 -64 -169 -59 -105 6 -169 65 -182 169 l-6 39
388 0 388 0 -5 128 c-8 199 -60 326 -179 438 -128 120 -356 172 -558 128z
m244 -303 c46 -21 79 -54 94 -94 23 -59 28 -57 -179 -57 -145 0 -190 3 -190
13 0 6 9 30 19 53 41 90 159 130 256 85z"/>
<path d="M5889 4630 c-250 -40 -389 -174 -389 -374 0 -104 22 -159 89 -227 74
-73 145 -101 364 -140 213 -38 247 -54 247 -111 0 -44 -47 -68 -134 -68 -82 0
-137 26 -161 77 l-16 33 -211 0 -210 0 6 -37 c27 -153 168 -287 357 -339 91
-26 357 -26 448 -1 156 43 269 127 322 241 58 124 36 272 -54 352 -76 70 -174
101 -484 155 -75 13 -129 38 -139 64 -11 28 6 65 39 81 41 22 132 22 174 1 34
-18 73 -62 73 -83 0 -11 37 -14 196 -14 l197 0 -6 50 c-18 150 -147 276 -332
326 -71 18 -295 27 -376 14z"/>
<path d="M1429 3176 c-95 -25 -182 -96 -231 -188 l-23 -43 -3 118 -3 117 -199
0 -200 0 0 -595 0 -595 210 0 209 0 3 363 c3 339 4 365 23 401 25 49 58 74
114 87 78 17 158 -20 190 -90 14 -31 16 -90 19 -398 l3 -363 210 0 210 0 -3
438 c-3 422 -4 439 -25 495 -64 169 -208 268 -387 266 -39 0 -92 -6 -117 -13z"/>
<path d="M2468 3174 c-211 -45 -360 -185 -424 -399 -26 -85 -26 -306 0 -389
59 -197 195 -333 386 -391 85 -25 249 -31 350 -11 227 42 389 193 447 416 23
89 23 273 0 360 -44 166 -143 292 -281 360 -44 22 -112 47 -151 55 -88 18
-239 18 -327 -1z m261 -329 c51 -48 74 -117 79 -237 6 -141 -18 -227 -78 -282
-39 -35 -60 -41 -120 -36 -94 8 -151 118 -151 295 0 119 19 191 63 241 41 46
61 55 126 51 41 -3 59 -10 81 -32z"/>
<path d="M3718 3174 c-280 -60 -448 -283 -448 -594 0 -238 109 -440 289 -534
94 -49 161 -66 281 -73 324 -18 560 141 636 427 23 88 24 273 1 359 -59 220
-214 370 -432 416 -87 18 -239 18 -327 -1z m243 -316 c21 -14 45 -46 64 -83
29 -57 30 -65 30 -190 0 -115 -3 -136 -24 -183 -49 -108 -140 -145 -228 -91
-92 57 -129 309 -68 457 18 42 60 90 90 102 39 17 101 11 136 -12z"/>
<path d="M5901 3164 c-73 -37 -104 -86 -109 -174 -5 -80 17 -131 75 -179 120
-99 302 -34 344 122 25 93 -29 193 -126 238 -58 27 -121 24 -184 -7z"/>
<path d="M5960 2391 c-71 -15 -121 -54 -155 -120 -13 -25 -16 -52 -13 -102 4
-83 39 -140 108 -177 65 -34 160 -29 219 13 76 52 111 140 91 224 -26 110
-140 184 -250 162z"/>
</g>
</svg>
